<svg width="206" height="209" viewBox="0 0 206 209" fill="none" xmlns="http://www.w3.org/2000/svg">
<g opacity="0.1">
<path d="M127.762 104.542C127.762 118.217 116.676 129.304 103 129.304C89.3244 129.304 78.2381 118.217 78.2381 104.542C78.2381 90.866 89.3244 79.7797 103 79.7797C116.676 79.7797 127.762 90.866 127.762 104.542Z" fill="white"/>
<path fill-rule="evenodd" clip-rule="evenodd" d="M103 208.542C155.393 208.542 198.738 169.799 205.947 119.399H145.035C138.917 136.71 122.407 149.113 103 149.113C83.5933 149.113 67.0835 136.71 60.9648 119.399L0.0532056 119.399C7.26233 169.799 50.6067 208.542 103 208.542ZM60.9648 89.6845L0.0532056 89.6845C7.26233 39.2847 50.6067 0.541626 103 0.541626C155.393 0.541626 198.738 39.2847 205.947 89.6845H145.035C138.917 72.3731 122.407 59.9702 103 59.9702C83.5933 59.9702 67.0835 72.3731 60.9648 89.6845ZM127.762 104.542C127.762 118.217 116.676 129.304 103 129.304C89.3244 129.304 78.2381 118.217 78.2381 104.542C78.2381 90.866 89.3244 79.7797 103 79.7797C116.676 79.7797 127.762 90.866 127.762 104.542Z" fill="white"/>
</g>
</svg>
